<?xml version="1.0" encoding="UTF-8"?>
<svg xmlns="http://www.w3.org/2000/svg"
     xmlns:xlink="http://www.w3.org/1999/xlink"
     version="1.1"
     viewBox="-150 0 300 100"
     style="text-shadow:1px 1px 1px #000">
  <path d="M -100, 100
           L 100, 100
           L 80, 80
           L -80, 80
           z" fill="#a3be8c" />
  <text font-size="10"
        fill="white"
        stroke="black"
        stroke-width="0.1"
        paint-order="stroke"
        text-anchor="middle"
        x="0" y="95">
    Compiler Validation
  </text>
  <path d="M -80, 80
           L 80, 80
           L 55, 55
           L -55, 55
           z" fill="#5e81ac" />
  <text font-size="10"
        fill="white"
        stroke="black"
        stroke-width="0.1"
        paint-order="stroke"
        text-anchor="middle"
        x="0" y="70">
    Unit Tests
  </text>
  <path d="M -55, 55
           L 55, 55
           L 30, 30
           L -30, 30
           z" fill="#ebcb8b" />
  <text font-size="10"
        fill="white"
        stroke="black"
        stroke-width="0.1"
        paint-order="stroke"
        text-anchor="middle"
        x="0" y="45">
    Service Tests
  </text>
  <path d="M -30, 30
           L 30, 30
           L 0, 0
           L 0, 0
           z" fill="#d08770" />
  <text font-size="10"
        fill="white"
        stroke="black"
        stroke-width="0.1"
        paint-order="stroke"
        text-anchor="middle"
        x="0" y="20">
    UI Tests
  </text>
  <path
    d="M -110, 10
       L -110, 90
       M -115, 80
       L -110, 90
       L -105, 80
       M -115, 20
       L -110, 10
       L -105, 20
       z"
       fill="#d08770"
       stroke="#d08770"
       stroke-width="1.5" />
  <text font-size="10"
        fill="white"
        stroke="black"
        stroke-width="0.1"
        paint-order="stroke"
        text-anchor="middle"
        x="-110" y="30">
    more integration
  </text>
  <text font-size="10"
        fill="white"
        stroke="black"
        stroke-width="0.1"
        paint-order="stroke"
        text-anchor="middle"
        x="-110" y="75">
    more isolation
  </text>
  <path
    d="M 110, 10
       L 110, 90
       M 115, 80
       L 110, 90
       L 105, 80
       M 115, 20
       L 110, 10
       L 105, 20
       z"
       fill="#d08770"
       stroke="#d08770"
       stroke-width="1.5" />
  <text font-size="10"
        fill="white"
        stroke="black"
        stroke-width="0.1"
        paint-order="stroke"
        text-anchor="middle"
        x="110" y="30">
    slower
  </text>
  <text font-size="10"
        fill="white"
        stroke="black"
        stroke-width="0.1"
        paint-order="stroke"
        text-anchor="middle"
        x="110" y="75">
    faster
  </text>
</svg>
